<?xml version="1.0" encoding="UTF-8" standalone="no"?>
<svg xmlns:ffdec="https://www.free-decompiler.com/flash" xmlns:xlink="http://www.w3.org/1999/xlink" ffdec:objectType="shape" height="16.45px" width="70.0px" xmlns="http://www.w3.org/2000/svg">
  <g transform="matrix(1.0, 0.0, 0.0, 1.0, -258.65, 0.0)">
    <path d="M262.1 8.8 L260.8 8.8 260.8 13.65 262.2 13.65 Q262.4 13.75 262.55 13.5 L262.65 12.95 262.65 9.65 Q262.7 8.8 262.1 8.8 M260.8 6.75 L262.1 6.75 262.5 6.55 262.65 5.75 262.65 2.2 260.8 2.2 260.8 6.75 M272.9 16.05 L272.4 15.65 272.2 14.35 272.1 11.55 273.6 11.55 273.75 14.15 273.9 14.5 274.3 14.55 274.6 14.55 274.6 16.15 272.9 16.05 M267.8 11.65 L269.35 11.65 269.35 14.1 269.5 14.55 270.75 14.7 271.75 14.7 271.75 16.3 268.5 16.15 267.95 15.7 267.8 14.4 267.8 11.65 M269.95 11.65 L271.0 11.65 271.0 12.35 271.15 12.75 271.5 12.8 271.75 12.8 271.75 13.9 271.2 13.9 270.35 13.8 270.0 13.5 269.95 11.65 M265.85 11.65 L267.35 11.65 267.25 14.45 267.1 15.6 266.6 16.15 264.95 16.25 264.95 14.7 265.15 14.7 265.55 14.6 265.75 14.1 265.85 11.65 M264.65 7.15 L264.25 7.75 263.9 7.95 264.55 8.7 264.75 9.5 264.75 13.6 264.55 14.9 Q264.4 15.65 263.25 15.65 L260.8 15.65 260.8 16.25 258.65 16.25 258.65 0.2 264.75 0.2 264.75 6.2 264.65 7.15 M274.45 0.6 L274.45 2.1 273.05 3.9 274.45 3.9 274.45 8.5 274.25 10.1 273.6 10.9 272.7 11.05 265.65 11.05 265.65 9.25 271.65 9.25 272.05 9.2 272.2 9.0 272.25 8.7 272.25 8.4 265.65 8.4 265.65 6.6 272.25 6.6 272.25 5.7 265.6 5.7 265.6 3.9 270.85 3.9 271.95 2.4 268.15 2.4 268.0 2.7 267.6 3.1 267.05 3.2 265.6 3.2 265.6 1.45 266.15 1.45 266.45 1.4 266.7 1.0 267.15 0.0 269.3 0.0 269.0 0.6 274.45 0.6 M285.35 14.35 L285.35 13.4 284.6 13.4 284.6 14.35 285.35 14.35 M284.6 10.45 L284.6 11.5 285.35 11.5 285.65 11.4 285.8 11.1 285.8 10.45 284.6 10.45 M284.6 7.75 L284.6 8.85 285.35 8.85 285.35 7.75 284.6 7.75 M286.8 8.85 L287.45 8.85 287.45 12.15 287.35 12.6 287.2 12.95 286.75 13.35 286.75 14.35 287.35 14.35 287.35 16.05 282.75 16.05 282.75 6.0 287.45 6.0 287.45 7.75 286.8 7.75 286.8 8.85 M290.75 3.35 L290.15 3.35 290.15 3.9 290.6 3.9 290.75 3.35 M291.6 0.75 L292.55 0.75 292.55 2.45 291.6 2.45 291.6 3.15 292.15 3.15 292.15 3.9 292.55 3.9 292.55 5.6 290.15 5.6 290.15 11.3 290.45 11.3 Q290.7 11.3 290.7 10.9 L290.7 6.4 292.55 6.4 292.55 11.15 Q292.55 12.25 292.1 12.6 291.7 13.0 290.85 13.0 L290.15 13.0 290.15 13.75 290.35 14.15 291.25 14.3 292.45 14.3 292.45 16.2 290.25 16.2 Q289.0 16.2 288.55 15.8 L288.1 14.95 288.1 5.6 282.1 5.6 282.1 14.3 282.0 15.35 Q281.9 16.25 279.8 16.25 L276.8 16.25 276.8 14.2 279.2 14.2 279.7 14.05 279.9 13.75 279.9 11.3 278.9 11.3 278.9 13.6 277.0 13.6 277.0 9.55 279.9 9.55 279.9 8.9 276.95 8.9 276.95 4.05 278.85 4.05 278.85 7.05 279.9 7.05 279.9 3.9 288.1 3.9 288.1 3.1 289.2 3.1 289.2 2.45 280.25 2.45 280.25 3.35 277.85 3.35 277.85 2.45 276.65 2.45 276.65 0.75 277.85 0.75 277.85 0.1 280.25 0.1 280.25 0.75 289.2 0.75 289.2 0.1 291.6 0.1 291.6 0.75 M300.15 4.8 L301.1 4.8 301.1 7.05 300.15 7.05 300.15 14.3 300.05 15.1 299.75 15.75 299.0 16.25 297.75 16.45 295.05 16.45 295.05 14.45 297.05 14.45 Q297.8 14.45 297.8 13.6 L297.8 10.35 296.75 12.0 296.35 12.35 295.8 12.45 294.75 12.45 294.75 10.1 295.25 10.1 295.6 10.0 295.9 9.55 297.8 5.8 297.8 3.6 294.75 3.6 294.75 1.6 297.8 1.6 297.8 0.15 300.15 0.15 300.15 1.6 301.35 1.6 301.35 3.6 300.15 3.6 300.15 4.8 M320.35 14.5 L320.1 15.75 Q319.9 16.35 318.6 16.35 L316.4 16.35 316.4 14.55 317.7 14.55 318.1 14.4 318.2 14.0 318.2 13.7 315.2 13.7 315.2 16.3 313.05 16.3 313.05 5.85 320.35 5.85 320.35 14.5 M310.4 1.55 L310.4 3.5 307.0 3.5 307.0 5.6 310.4 5.6 310.4 7.55 307.35 12.2 308.55 13.7 Q309.1 14.35 310.0 14.35 L310.55 14.35 310.55 16.3 309.05 16.3 307.7 16.0 306.95 15.3 305.9 14.0 304.85 15.3 303.9 16.1 302.85 16.3 301.2 16.3 301.2 14.35 301.85 14.35 302.55 14.15 303.1 13.75 304.45 12.05 301.85 8.3 304.45 8.3 305.9 10.1 307.6 7.55 301.65 7.55 301.65 5.6 304.75 5.6 304.75 3.5 301.8 3.5 301.8 1.55 304.75 1.55 304.75 0.1 307.0 0.1 307.0 1.55 310.4 1.55 M318.25 7.6 L315.15 7.6 315.15 8.95 318.25 8.95 318.25 7.6 M318.25 10.7 L315.15 10.7 315.15 12.0 318.25 12.0 318.25 10.7 M320.65 1.6 L320.65 2.95 320.45 4.2 319.8 4.85 318.65 5.05 312.8 5.05 312.8 3.15 315.35 0.25 318.25 0.25 315.55 3.3 317.8 3.3 318.4 3.15 318.5 2.6 318.5 1.6 320.65 1.6 M326.5 9.25 L326.5 8.65 328.65 8.65 328.65 10.1 Q328.7 10.8 328.25 11.3 327.9 11.85 326.9 11.85 L323.5 11.85 323.5 13.85 323.7 14.4 324.35 14.55 328.65 14.55 328.65 16.3 323.5 16.3 322.05 16.1 Q321.3 16.0 321.3 14.55 L321.3 8.55 323.5 8.55 323.5 10.1 325.7 10.1 326.3 9.95 Q326.5 9.8 326.5 9.25 M328.45 0.25 L328.45 1.7 Q328.45 2.45 328.05 2.95 327.6 3.5 326.7 3.5 L323.5 3.5 323.5 5.6 323.7 6.15 324.4 6.3 328.65 6.3 328.65 8.05 323.55 8.05 322.05 7.85 Q321.35 7.75 321.35 6.3 L321.35 0.25 323.5 0.25 323.5 1.75 324.95 1.7 326.1 1.55 326.25 0.85 326.25 0.25 328.45 0.25" fill="url(#gradient0)" fill-rule="evenodd" stroke="none"/>
  </g>
  <defs>
    <linearGradient gradientTransform="matrix(0.0, -0.0141, 0.0143, 0.0, 285.05, 8.3)" gradientUnits="userSpaceOnUse" id="gradient0" spreadMethod="pad" x1="-819.2" x2="819.2">
      <stop offset="0.0" stop-color="#33f5f5"/>
      <stop offset="1.0" stop-color="#33f5f5"/>
    </linearGradient>
  </defs>
</svg>
