<?xml version="1.0" encoding="UTF-8" standalone="no"?>
<svg xmlns:ffdec="https://www.free-decompiler.com/flash" xmlns:xlink="http://www.w3.org/1999/xlink" ffdec:objectType="shape" height="60.1px" width="68.35px" xmlns="http://www.w3.org/2000/svg">
  <g transform="matrix(1.0, 0.0, 0.0, 1.0, 0.0, 0.0)">
    <path d="M43.65 25.65 Q41.25 21.5 36.55 20.2 31.9 18.95 27.75 21.35 23.6 23.75 22.35 28.45 21.1 33.15 23.5 37.3 25.9 41.45 30.55 42.7 35.25 43.9 39.4 41.5 43.55 39.1 44.75 34.45 46.05 29.8 43.65 25.65 M0.0 30.05 Q32.9 32.4 17.35 0.0 33.2 30.1 52.0 0.05 33.9 33.35 68.35 30.25 39.45 33.8 49.25 55.65 34.6 36.95 17.35 60.1 31.5 33.0 0.0 30.05" fill="#ff6600" fill-rule="evenodd" stroke="none"/>
  </g>
</svg>
