<?xml version="1.0" encoding="UTF-8" standalone="no"?>
<svg xmlns:ffdec="https://www.free-decompiler.com/flash" xmlns:xlink="http://www.w3.org/1999/xlink" ffdec:objectType="shape" height="52.85px" width="101.95px" xmlns="http://www.w3.org/2000/svg">
  <g transform="matrix(1.0, 0.0, 0.0, 1.0, -52.95, -106.05)">
    <path d="M54.45 132.0 Q55.8 127.95 57.7 125.25 59.5 122.6 60.65 122.8 61.75 123.1 61.8 126.1 61.6 129.25 60.25 133.35 58.7 137.45 56.95 140.05 55.05 142.85 53.9 142.55 52.7 142.3 53.0 139.15 52.95 136.05 54.45 132.0" fill="url(#gradient0)" fill-rule="evenodd" stroke="none"/>
    <path d="M144.75 148.05 Q143.05 150.7 139.9 153.6 136.55 156.45 133.75 157.9 130.75 159.45 129.85 158.6 128.95 157.8 130.7 155.2 132.15 152.5 135.5 149.65 138.6 146.75 141.6 145.35 144.45 143.85 145.35 144.6 146.15 145.4 144.75 148.05" fill="url(#gradient1)" fill-rule="evenodd" stroke="none"/>
    <path d="M153.2 127.65 Q155.8 133.05 154.45 134.6 152.95 136.3 148.25 133.05 143.35 130.45 138.3 124.4 133.2 118.8 130.55 113.4 127.95 108.25 129.3 106.6 130.8 105.1 135.5 107.75 140.25 110.8 145.5 116.55 150.6 122.6 153.2 127.65" fill="url(#gradient2)" fill-rule="evenodd" stroke="none"/>
  </g>
  <defs>
    <radialGradient cx="0" cy="0" gradientTransform="matrix(-0.0044, 0.0129, -0.0038, -9.0E-4, 57.35, 132.65)" gradientUnits="userSpaceOnUse" id="gradient0" r="819.2" spreadMethod="pad">
      <stop offset="0.0" stop-color="#ff0000" stop-opacity="0.47843137"/>
      <stop offset="1.0" stop-color="#ff0000" stop-opacity="0.0"/>
    </radialGradient>
    <radialGradient cx="0" cy="0" gradientTransform="matrix(-0.0101, 0.0091, -0.0029, -0.0026, 137.65, 151.6)" gradientUnits="userSpaceOnUse" id="gradient1" r="819.2" spreadMethod="pad">
      <stop offset="0.0" stop-color="#ff0000" stop-opacity="0.47843137"/>
      <stop offset="1.0" stop-color="#ff0000" stop-opacity="0.0"/>
    </radialGradient>
    <radialGradient cx="0" cy="0" gradientTransform="matrix(0.0163, 0.0183, -0.0047, 0.0052, 141.9, 120.5)" gradientUnits="userSpaceOnUse" id="gradient2" r="819.2" spreadMethod="pad">
      <stop offset="0.0" stop-color="#ff0000" stop-opacity="0.47843137"/>
      <stop offset="1.0" stop-color="#ff0000" stop-opacity="0.0"/>
    </radialGradient>
  </defs>
</svg>
