<?xml version="1.0" encoding="UTF-8" standalone="no"?>
<svg xmlns:ffdec="https://www.free-decompiler.com/flash" xmlns:xlink="http://www.w3.org/1999/xlink" ffdec:objectType="shape" height="531.0px" width="440.0px" xmlns="http://www.w3.org/2000/svg">
  <g transform="matrix(1.0, 0.0, 0.0, 1.0, 117.0, -2148.0)">
    <path d="M192.0 2298.0 L199.0 2316.0 201.0 2336.0 201.0 2359.0 201.0 2367.0 138.0 2367.0 138.0 2359.0 136.0 2347.0 131.0 2336.0 Q125.0 2329.0 118.0 2329.0 L91.0 2329.0 Q78.0 2329.0 73.0 2336.0 L66.0 2354.0 66.0 2370.0 66.0 2379.0 68.0 2385.0 69.0 2386.0 73.0 2383.0 84.0 2381.0 98.0 2379.0 138.0 2379.0 156.0 2381.0 168.0 2385.0 179.0 2390.0 186.0 2399.0 194.0 2412.0 199.0 2428.0 203.0 2449.0 203.0 2478.0 201.0 2496.0 199.0 2511.0 194.0 2525.0 185.0 2539.0 176.0 2548.0 165.0 2556.0 150.0 2559.0 132.0 2559.0 91.0 2559.0 59.0 2559.0 42.0 2556.0 30.0 2548.0 21.0 2541.0 15.0 2530.0 8.0 2514.0 5.0 2494.0 3.0 2467.0 3.0 2351.0 5.0 2334.0 8.0 2313.0 14.0 2298.0 21.0 2288.0 33.0 2277.0 Q41.0 2271.0 50.0 2270.0 L71.0 2268.0 138.0 2268.0 156.0 2270.0 Q163.0 2271.0 170.0 2275.0 L183.0 2286.0 192.0 2298.0 M75.0 2444.0 L68.0 2451.0 66.0 2471.0 68.0 2489.0 77.0 2496.0 91.0 2500.0 105.0 2500.0 123.0 2496.0 132.0 2489.0 134.0 2471.0 134.0 2453.0 127.0 2444.0 111.0 2440.0 93.0 2440.0 75.0 2444.0" fill="url(#gradient0)" fill-rule="evenodd" stroke="none"/>
    <path d="M192.0 2298.0 L199.0 2316.0 201.0 2336.0 201.0 2359.0 201.0 2367.0 138.0 2367.0 138.0 2359.0 136.0 2347.0 131.0 2336.0 Q125.0 2329.0 118.0 2329.0 L91.0 2329.0 Q78.0 2329.0 73.0 2336.0 L66.0 2354.0 66.0 2370.0 66.0 2379.0 68.0 2385.0 69.0 2386.0 73.0 2383.0 84.0 2381.0 98.0 2379.0 138.0 2379.0 156.0 2381.0 168.0 2385.0 179.0 2390.0 186.0 2399.0 194.0 2412.0 199.0 2428.0 203.0 2449.0 203.0 2478.0 201.0 2496.0 199.0 2511.0 194.0 2525.0 185.0 2539.0 176.0 2548.0 165.0 2556.0 150.0 2559.0 132.0 2559.0 91.0 2559.0 59.0 2559.0 42.0 2556.0 30.0 2548.0 21.0 2541.0 15.0 2530.0 8.0 2514.0 5.0 2494.0 3.0 2467.0 3.0 2351.0 5.0 2334.0 8.0 2313.0 14.0 2298.0 21.0 2288.0 33.0 2277.0 Q41.0 2271.0 50.0 2270.0 L71.0 2268.0 138.0 2268.0 156.0 2270.0 Q163.0 2271.0 170.0 2275.0 L183.0 2286.0 192.0 2298.0 M75.0 2444.0 L68.0 2451.0 66.0 2471.0 68.0 2489.0 77.0 2496.0 91.0 2500.0 105.0 2500.0 123.0 2496.0 132.0 2489.0 134.0 2471.0 134.0 2453.0 127.0 2444.0 111.0 2440.0 93.0 2440.0 75.0 2444.0 Z" fill="none" stroke="#ffffff" stroke-linecap="square" stroke-linejoin="miter-clip" stroke-width="180.0"/>
    <path d="M192.0 2298.0 L199.0 2316.0 201.0 2336.0 201.0 2359.0 201.0 2367.0 138.0 2367.0 138.0 2359.0 136.0 2347.0 131.0 2336.0 Q125.0 2329.0 118.0 2329.0 L91.0 2329.0 Q78.0 2329.0 73.0 2336.0 L66.0 2354.0 66.0 2370.0 66.0 2379.0 68.0 2385.0 69.0 2386.0 73.0 2383.0 84.0 2381.0 98.0 2379.0 138.0 2379.0 156.0 2381.0 168.0 2385.0 179.0 2390.0 186.0 2399.0 194.0 2412.0 199.0 2428.0 203.0 2449.0 203.0 2478.0 201.0 2496.0 199.0 2511.0 194.0 2525.0 185.0 2539.0 176.0 2548.0 165.0 2556.0 150.0 2559.0 132.0 2559.0 91.0 2559.0 59.0 2559.0 42.0 2556.0 30.0 2548.0 21.0 2541.0 15.0 2530.0 8.0 2514.0 5.0 2494.0 3.0 2467.0 3.0 2351.0 5.0 2334.0 8.0 2313.0 14.0 2298.0 21.0 2288.0 33.0 2277.0 Q41.0 2271.0 50.0 2270.0 L71.0 2268.0 138.0 2268.0 156.0 2270.0 Q163.0 2271.0 170.0 2275.0 L183.0 2286.0 192.0 2298.0 M68.0 2451.0 L66.0 2471.0 68.0 2489.0 77.0 2496.0 91.0 2500.0 105.0 2500.0 123.0 2496.0 132.0 2489.0 134.0 2471.0 134.0 2453.0 127.0 2444.0 111.0 2440.0 93.0 2440.0 75.0 2444.0 68.0 2451.0" fill="url(#gradient1)" fill-rule="evenodd" stroke="none"/>
    <path d="M192.0 2298.0 L199.0 2316.0 201.0 2336.0 201.0 2359.0 201.0 2367.0 138.0 2367.0 138.0 2359.0 136.0 2347.0 131.0 2336.0 Q125.0 2329.0 118.0 2329.0 L91.0 2329.0 Q78.0 2329.0 73.0 2336.0 L66.0 2354.0 66.0 2370.0 66.0 2379.0 68.0 2385.0 69.0 2386.0 73.0 2383.0 84.0 2381.0 98.0 2379.0 138.0 2379.0 156.0 2381.0 168.0 2385.0 179.0 2390.0 186.0 2399.0 194.0 2412.0 199.0 2428.0 203.0 2449.0 203.0 2478.0 201.0 2496.0 199.0 2511.0 194.0 2525.0 185.0 2539.0 176.0 2548.0 165.0 2556.0 150.0 2559.0 132.0 2559.0 91.0 2559.0 59.0 2559.0 42.0 2556.0 30.0 2548.0 21.0 2541.0 15.0 2530.0 8.0 2514.0 5.0 2494.0 3.0 2467.0 3.0 2351.0 5.0 2334.0 8.0 2313.0 14.0 2298.0 21.0 2288.0 33.0 2277.0 Q41.0 2271.0 50.0 2270.0 L71.0 2268.0 138.0 2268.0 156.0 2270.0 Q163.0 2271.0 170.0 2275.0 L183.0 2286.0 192.0 2298.0 M68.0 2451.0 L66.0 2471.0 68.0 2489.0 77.0 2496.0 91.0 2500.0 105.0 2500.0 123.0 2496.0 132.0 2489.0 134.0 2471.0 134.0 2453.0 127.0 2444.0 111.0 2440.0 93.0 2440.0 75.0 2444.0 68.0 2451.0 Z" fill="none" stroke="#2d0000" stroke-linecap="square" stroke-linejoin="miter-clip" stroke-width="120.0"/>
    <path d="M192.0 2298.0 L199.0 2316.0 201.0 2336.0 201.0 2359.0 201.0 2367.0 138.0 2367.0 138.0 2359.0 136.0 2347.0 131.0 2336.0 Q125.0 2329.0 118.0 2329.0 L91.0 2329.0 Q78.0 2329.0 73.0 2336.0 L66.0 2354.0 66.0 2370.0 66.0 2379.0 68.0 2385.0 69.0 2386.0 73.0 2383.0 84.0 2381.0 98.0 2379.0 138.0 2379.0 156.0 2381.0 168.0 2385.0 179.0 2390.0 186.0 2399.0 194.0 2412.0 199.0 2428.0 203.0 2449.0 203.0 2478.0 201.0 2496.0 199.0 2511.0 194.0 2525.0 185.0 2539.0 176.0 2548.0 165.0 2556.0 150.0 2559.0 132.0 2559.0 91.0 2559.0 59.0 2559.0 42.0 2556.0 30.0 2548.0 21.0 2541.0 15.0 2530.0 8.0 2514.0 5.0 2494.0 3.0 2467.0 3.0 2351.0 5.0 2334.0 8.0 2313.0 14.0 2298.0 21.0 2288.0 33.0 2277.0 Q41.0 2271.0 50.0 2270.0 L71.0 2268.0 138.0 2268.0 156.0 2270.0 Q163.0 2271.0 170.0 2275.0 L183.0 2286.0 192.0 2298.0 M68.0 2451.0 L66.0 2471.0 68.0 2489.0 77.0 2496.0 91.0 2500.0 105.0 2500.0 123.0 2496.0 132.0 2489.0 134.0 2471.0 134.0 2453.0 127.0 2444.0 111.0 2440.0 93.0 2440.0 75.0 2444.0 68.0 2451.0" fill="url(#gradient2)" fill-rule="evenodd" stroke="none"/>
    <path d="M192.0 2298.0 L199.0 2316.0 201.0 2336.0 201.0 2359.0 201.0 2367.0 138.0 2367.0 138.0 2359.0 136.0 2347.0 131.0 2336.0 Q125.0 2329.0 118.0 2329.0 L91.0 2329.0 Q78.0 2329.0 73.0 2336.0 L66.0 2354.0 66.0 2370.0 66.0 2379.0 68.0 2385.0 69.0 2386.0 73.0 2383.0 84.0 2381.0 98.0 2379.0 138.0 2379.0 156.0 2381.0 168.0 2385.0 179.0 2390.0 186.0 2399.0 194.0 2412.0 199.0 2428.0 203.0 2449.0 203.0 2478.0 201.0 2496.0 199.0 2511.0 194.0 2525.0 185.0 2539.0 176.0 2548.0 165.0 2556.0 150.0 2559.0 132.0 2559.0 91.0 2559.0 59.0 2559.0 42.0 2556.0 30.0 2548.0 21.0 2541.0 15.0 2530.0 8.0 2514.0 5.0 2494.0 3.0 2467.0 3.0 2351.0 5.0 2334.0 8.0 2313.0 14.0 2298.0 21.0 2288.0 33.0 2277.0 Q41.0 2271.0 50.0 2270.0 L71.0 2268.0 138.0 2268.0 156.0 2270.0 Q163.0 2271.0 170.0 2275.0 L183.0 2286.0 192.0 2298.0 M68.0 2451.0 L66.0 2471.0 68.0 2489.0 77.0 2496.0 91.0 2500.0 105.0 2500.0 123.0 2496.0 132.0 2489.0 134.0 2471.0 134.0 2453.0 127.0 2444.0 111.0 2440.0 93.0 2440.0 75.0 2444.0 68.0 2451.0 Z" fill="none" stroke="#de801e" stroke-linecap="square" stroke-linejoin="miter-clip" stroke-width="60.0"/>
    <path d="M192.0 2298.0 L199.0 2316.0 201.0 2336.0 201.0 2359.0 201.0 2367.0 138.0 2367.0 138.0 2359.0 136.0 2347.0 131.0 2336.0 Q125.0 2329.0 118.0 2329.0 L91.0 2329.0 Q78.0 2329.0 73.0 2336.0 L66.0 2354.0 66.0 2370.0 66.0 2379.0 68.0 2385.0 69.0 2386.0 73.0 2383.0 84.0 2381.0 98.0 2379.0 138.0 2379.0 156.0 2381.0 168.0 2385.0 179.0 2390.0 186.0 2399.0 194.0 2412.0 199.0 2428.0 203.0 2449.0 203.0 2478.0 201.0 2496.0 199.0 2511.0 194.0 2525.0 185.0 2539.0 176.0 2548.0 165.0 2556.0 150.0 2559.0 132.0 2559.0 91.0 2559.0 59.0 2559.0 42.0 2556.0 30.0 2548.0 21.0 2541.0 15.0 2530.0 8.0 2514.0 5.0 2494.0 3.0 2467.0 3.0 2351.0 5.0 2334.0 8.0 2313.0 14.0 2298.0 21.0 2288.0 33.0 2277.0 Q41.0 2271.0 50.0 2270.0 L71.0 2268.0 138.0 2268.0 156.0 2270.0 Q163.0 2271.0 170.0 2275.0 L183.0 2286.0 192.0 2298.0 M68.0 2451.0 L66.0 2471.0 68.0 2489.0 77.0 2496.0 91.0 2500.0 105.0 2500.0 123.0 2496.0 132.0 2489.0 134.0 2471.0 134.0 2453.0 127.0 2444.0 111.0 2440.0 93.0 2440.0 75.0 2444.0 68.0 2451.0" fill="url(#gradient3)" fill-rule="evenodd" stroke="none"/>
  </g>
  <defs>
    <linearGradient gradientTransform="matrix(0.0, -0.1685, 0.1776, 0.0, 103.0, 2413.0)" gradientUnits="userSpaceOnUse" id="gradient0" spreadMethod="pad" x1="-819.2" x2="819.2">
      <stop offset="0.0" stop-color="#ff9900"/>
      <stop offset="1.0" stop-color="#ffff00"/>
    </linearGradient>
    <linearGradient gradientTransform="matrix(0.0, -0.1685, 0.1776, 0.0, 103.0, 2413.0)" gradientUnits="userSpaceOnUse" id="gradient1" spreadMethod="pad" x1="-819.2" x2="819.2">
      <stop offset="0.0" stop-color="#ff9900"/>
      <stop offset="1.0" stop-color="#ffff00"/>
    </linearGradient>
    <linearGradient gradientTransform="matrix(0.0, -0.1685, 0.1776, 0.0, 103.0, 2413.0)" gradientUnits="userSpaceOnUse" id="gradient2" spreadMethod="pad" x1="-819.2" x2="819.2">
      <stop offset="0.0" stop-color="#ff9900"/>
      <stop offset="1.0" stop-color="#ffff00"/>
    </linearGradient>
    <linearGradient gradientTransform="matrix(0.0, -0.1685, 0.1776, 0.0, 103.0, 2413.0)" gradientUnits="userSpaceOnUse" id="gradient3" spreadMethod="pad" x1="-819.2" x2="819.2">
      <stop offset="0.0" stop-color="#ff9900"/>
      <stop offset="1.0" stop-color="#ffff00"/>
    </linearGradient>
  </defs>
</svg>
