<?xml version="1.0" encoding="UTF-8" standalone="no"?>
<svg xmlns:ffdec="https://www.free-decompiler.com/flash" xmlns:xlink="http://www.w3.org/1999/xlink" ffdec:objectType="shape" height="561.0px" width="542.0px" xmlns="http://www.w3.org/2000/svg">
  <g transform="matrix(1.0, 0.0, 0.0, 1.0, -37.0, -19.5)">
    <path d="M191.0 54.5 Q171.0 70.5 171.0 87.5 L173.0 107.5 174.0 107.5 179.0 106.5 Q201.0 102.5 221.0 114.5 L238.0 134.5 241.0 138.5 Q280.0 132.5 314.0 154.5 334.1 167.7 346.4 186.85 L353.0 187.5 360.0 189.5 Q399.0 197.5 424.0 229.5 L428.0 236.5 Q443.0 257.5 447.0 280.5 468.0 283.5 482.0 301.5 L488.0 309.5 492.0 322.5 495.0 343.5 Q528.0 340.5 544.0 302.5 M447.0 280.5 L447.0 303.5 448.0 312.5 445.0 324.5 439.0 342.5 427.0 362.5 423.0 366.5 406.0 385.5 397.0 390.5 401.0 392.5 426.0 402.5 Q449.0 405.5 467.0 391.5 L471.0 388.5 472.0 388.5 Q486.0 377.5 492.0 361.5 L495.0 350.5 495.0 343.5 M173.0 107.5 Q156.0 111.5 143.0 123.5 L135.0 131.5 135.0 132.5 133.0 138.5 Q128.0 147.5 126.0 158.5 L126.0 172.5 127.0 181.5 Q132.0 204.5 149.0 216.5 L158.0 195.5 163.0 186.5 171.0 176.5 184.0 163.5 203.0 150.5 208.0 148.5 Q219.0 141.5 232.0 139.5 L241.0 138.5 M133.0 138.5 Q102.0 127.5 72.0 153.5 M72.0 429.5 Q89.0 447.5 105.0 447.5 L125.0 446.5 125.0 445.5 124.0 439.5 Q120.0 417.5 132.0 398.5 140.0 387.5 151.0 379.5 L154.0 376.5 Q147.6 341.65 164.7 310.2 153.0 292.65 148.0 270.5 L148.0 262.5 Q143.0 238.5 149.0 216.5 M154.0 376.5 L155.0 385.5 167.0 415.5 182.0 433.5 194.0 446.5 205.0 453.5 213.0 457.5 236.0 466.5 282.0 467.5 290.0 465.5 Q329.0 456.5 353.0 424.5 L357.0 416.5 Q360.55 411.1 363.4 405.55 381.45 401.55 397.0 390.5 M236.0 466.5 Q223.0 484.5 200.0 489.5 L191.0 491.5 178.0 491.5 157.0 485.5 Q147.0 517.5 174.0 545.5 M125.0 446.5 Q130.0 463.5 143.0 474.5 L152.0 483.5 157.0 485.5 M472.0 388.5 L483.0 405.5 Q489.0 420.5 479.0 444.5" fill="none" stroke="#ffffff" stroke-linecap="round" stroke-linejoin="round" stroke-width="70.0"/>
    <path d="M167.0 415.5 L155.0 385.5 154.0 376.5 Q147.0 338.5 168.0 304.5 193.0 263.5 239.0 252.5 L278.0 250.5 287.0 251.5 289.0 291.5 167.0 415.5" fill="#955984" fill-rule="evenodd" stroke="none"/>
    <path d="M315.0 263.5 L327.0 269.5 342.0 280.5 355.0 295.5 316.0 296.5 315.0 263.5 M191.0 491.5 L178.0 491.5 157.0 485.5 152.0 483.5 143.0 474.5 Q130.0 463.5 125.0 446.5 L125.0 445.5 124.0 439.5 Q120.0 417.5 132.0 398.5 140.0 387.5 151.0 379.5 L154.0 376.5 155.0 385.5 167.0 415.5 Q157.0 421.5 153.0 431.5 148.0 441.5 151.0 454.5 157.0 479.5 191.0 491.5" fill="#714a6d" fill-rule="evenodd" stroke="none"/>
    <path d="M236.0 466.5 Q223.0 484.5 200.0 489.5 L191.0 491.5 Q157.0 479.5 151.0 454.5 148.0 441.5 153.0 431.5 157.0 421.5 167.0 415.5 L182.0 433.5 194.0 446.5 205.0 453.5 213.0 457.5 236.0 466.5 M167.0 458.5 Q155.0 461.5 162.0 471.5 171.0 481.5 182.0 479.5 L188.0 476.5 190.0 466.5 Q188.0 460.5 167.0 458.5" fill="#9b749c" fill-rule="evenodd" stroke="none"/>
    <path d="M355.0 295.5 L359.0 300.5 369.0 324.5 319.0 327.5 194.0 446.5 182.0 433.5 167.0 415.5 289.0 291.5 287.0 251.5 Q302.0 256.5 315.0 263.5 L316.0 296.5 355.0 295.5 M316.0 296.5 L182.0 433.5 316.0 296.5" fill="#af7a9f" fill-rule="evenodd" stroke="none"/>
    <path d="M369.0 324.5 L371.0 333.5 Q382.0 378.5 357.0 416.5 L353.0 424.5 Q329.0 456.5 290.0 465.5 L282.0 467.5 236.0 466.5 213.0 457.5 205.0 453.5 194.0 446.5 319.0 327.5 369.0 324.5 M267.0 420.5 L246.0 419.5 Q235.0 422.5 238.0 434.5 250.0 448.5 265.0 446.5 L288.0 441.5 299.0 428.5 296.0 420.5 267.0 420.5 M303.0 410.5 Q305.0 429.5 320.0 424.5 L331.0 417.5 334.0 408.5 325.0 402.5 Q315.0 401.5 303.0 410.5" fill="#9f608c" fill-rule="evenodd" stroke="none"/>
    <path d="M303.0 410.5 Q315.0 401.5 325.0 402.5 L334.0 408.5 331.0 417.5 320.0 424.5 Q305.0 429.5 303.0 410.5 M267.0 420.5 L296.0 420.5 299.0 428.5 288.0 441.5 265.0 446.5 Q250.0 448.5 238.0 434.5 235.0 422.5 246.0 419.5 L267.0 420.5 M167.0 458.5 Q188.0 460.5 190.0 466.5 L188.0 476.5 182.0 479.5 Q171.0 481.5 162.0 471.5 155.0 461.5 167.0 458.5" fill="#ffffff" fill-rule="evenodd" stroke="none"/>
    <path d="M315.0 263.5 L327.0 269.5 342.0 280.5 355.0 295.5 359.0 300.5 369.0 324.5 371.0 333.5 Q382.0 378.5 357.0 416.5 L353.0 424.5 Q329.0 456.5 290.0 465.5 L282.0 467.5 236.0 466.5 Q223.0 484.5 200.0 489.5 L191.0 491.5 178.0 491.5 157.0 485.5 Q147.0 517.5 174.0 545.5 M154.0 376.5 L151.0 379.5 Q140.0 387.5 132.0 398.5 120.0 417.5 124.0 439.5 L125.0 445.5 125.0 446.5 Q130.0 463.5 143.0 474.5 L152.0 483.5 157.0 485.5 M154.0 376.5 L155.0 385.5 167.0 415.5 182.0 433.5 316.0 296.5 355.0 295.5 M287.0 251.5 L278.0 250.5 239.0 252.5 Q193.0 263.5 168.0 304.5 147.0 338.5 154.0 376.5 M287.0 251.5 Q302.0 256.5 315.0 263.5 L316.0 296.5 M236.0 466.5 L213.0 457.5 205.0 453.5 194.0 446.5 182.0 433.5 M125.0 446.5 L105.0 447.5 Q89.0 447.5 72.0 429.5" fill="none" stroke="#663300" stroke-linecap="round" stroke-linejoin="round" stroke-width="20.0"/>
    <path d="M262.0 215.5 L270.0 209.5 Q306.0 181.5 353.0 187.5 L360.0 189.5 Q399.0 197.5 424.0 229.5 L428.0 236.5 Q443.0 257.5 447.0 280.5 L447.0 303.5 448.0 312.5 445.0 324.5 285.0 259.5 262.0 215.5 M374.0 218.5 Q374.0 216.5 363.0 211.5 L353.0 212.5 351.0 223.5 Q355.0 233.5 368.0 240.5 384.0 230.5 374.0 218.5 M399.0 289.5 L417.0 290.5 Q424.0 273.5 416.0 260.5 L403.0 240.5 385.0 236.5 380.0 242.5 391.0 268.5 399.0 289.5" fill="#9f608c" fill-rule="evenodd" stroke="none"/>
    <path d="M488.0 309.5 L492.0 322.5 495.0 343.5 495.0 350.5 492.0 361.5 Q486.0 377.5 472.0 388.5 L471.0 388.5 467.0 391.5 Q449.0 405.5 426.0 402.5 L401.0 392.5 397.0 390.5 406.0 385.5 423.0 366.5 427.0 362.5 449.0 369.5 470.0 362.5 Q491.0 346.5 488.0 309.5 M242.0 240.5 L259.0 275.5 229.0 289.5 230.0 275.5 233.0 258.5 242.0 240.5" fill="#714a6d" fill-rule="evenodd" stroke="none"/>
    <path d="M447.0 280.5 Q468.0 283.5 482.0 301.5 L488.0 309.5 Q491.0 346.5 470.0 362.5 L449.0 369.5 427.0 362.5 439.0 342.5 445.0 324.5 448.0 312.5 447.0 303.5 447.0 280.5 M481.0 344.5 Q487.0 332.5 480.0 322.5 L475.0 318.5 464.0 320.5 Q459.0 324.5 467.0 344.5 474.0 354.5 481.0 344.5" fill="#9b749c" fill-rule="evenodd" stroke="none"/>
    <path d="M399.0 289.5 L391.0 268.5 380.0 242.5 385.0 236.5 403.0 240.5 416.0 260.5 Q424.0 273.5 417.0 290.5 L399.0 289.5 M374.0 218.5 Q384.0 230.5 368.0 240.5 355.0 233.5 351.0 223.5 L353.0 212.5 363.0 211.5 Q374.0 216.5 374.0 218.5 M481.0 344.5 Q474.0 354.5 467.0 344.5 459.0 324.5 464.0 320.5 L475.0 318.5 480.0 322.5 Q487.0 332.5 481.0 344.5" fill="#ffffff" fill-rule="evenodd" stroke="none"/>
    <path d="M445.0 324.5 L439.0 342.5 259.0 275.5 439.0 342.5 427.0 362.5 264.0 302.5 229.0 318.5 229.0 289.5 259.0 275.5 242.0 240.5 245.0 233.5 262.0 215.5 285.0 259.5 445.0 324.5" fill="#af7a9f" fill-rule="evenodd" stroke="none"/>
    <path d="M427.0 362.5 L423.0 366.5 406.0 385.5 397.0 390.5 Q366.0 412.5 325.0 406.5 279.0 400.5 250.0 362.5 238.0 347.5 233.0 328.5 L229.0 318.5 264.0 302.5 427.0 362.5" fill="#955984" fill-rule="evenodd" stroke="none"/>
    <path d="M262.0 215.5 L270.0 209.5 Q306.0 181.5 353.0 187.5 L360.0 189.5 Q399.0 197.5 424.0 229.5 L428.0 236.5 Q443.0 257.5 447.0 280.5 468.0 283.5 482.0 301.5 L488.0 309.5 492.0 322.5 495.0 343.5 Q528.0 340.5 544.0 302.5 M397.0 390.5 L401.0 392.5 426.0 402.5 Q449.0 405.5 467.0 391.5 L471.0 388.5 472.0 388.5 Q486.0 377.5 492.0 361.5 L495.0 350.5 495.0 343.5 M445.0 324.5 L448.0 312.5 447.0 303.5 447.0 280.5 M439.0 342.5 L445.0 324.5 M262.0 215.5 L245.0 233.5 242.0 240.5 259.0 275.5 439.0 342.5 427.0 362.5 423.0 366.5 406.0 385.5 397.0 390.5 Q366.0 412.5 325.0 406.5 279.0 400.5 250.0 362.5 238.0 347.5 233.0 328.5 L229.0 318.5 229.0 289.5 230.0 275.5 233.0 258.5 242.0 240.5 M229.0 289.5 L259.0 275.5 M472.0 388.5 L483.0 405.5 Q489.0 420.5 479.0 444.5" fill="none" stroke="#663300" stroke-linecap="round" stroke-linejoin="round" stroke-width="20.0"/>
    <path d="M241.0 138.5 L232.0 139.5 Q219.0 141.5 208.0 148.5 L203.0 150.5 186.0 135.5 164.0 131.5 Q138.0 137.5 126.0 172.5 L126.0 158.5 Q128.0 147.5 133.0 138.5 L135.0 132.5 135.0 131.5 143.0 123.5 Q156.0 111.5 173.0 107.5 L174.0 107.5 179.0 106.5 Q201.0 102.5 221.0 114.5 L238.0 134.5 241.0 138.5 M351.0 301.5 L344.0 312.5 333.0 327.5 317.0 340.5 317.0 301.5 351.0 301.5" fill="#714a6d" fill-rule="evenodd" stroke="none"/>
    <path d="M362.0 274.5 L324.0 274.5 203.0 150.5 208.0 148.5 Q219.0 141.5 232.0 139.5 L241.0 138.5 Q280.0 132.5 314.0 154.5 352.0 179.5 362.0 225.5 366.0 245.5 363.0 264.5 L362.0 274.5" fill="#955984" fill-rule="evenodd" stroke="none"/>
    <path d="M126.0 172.5 Q138.0 137.5 164.0 131.5 L186.0 135.5 203.0 150.5 184.0 163.5 171.0 176.5 163.0 186.5 158.0 195.5 149.0 216.5 Q132.0 204.5 127.0 181.5 L126.0 172.5 M138.0 164.5 L140.0 169.5 151.0 170.5 Q157.0 169.5 160.0 149.5 157.0 137.5 146.0 143.5 135.0 152.5 138.0 164.5" fill="#9b749c" fill-rule="evenodd" stroke="none"/>
    <path d="M138.0 164.5 Q135.0 152.5 146.0 143.5 157.0 137.5 160.0 149.5 157.0 169.5 151.0 170.5 L140.0 169.5 138.0 164.5 M168.0 247.5 Q167.0 231.5 181.0 219.5 194.0 217.5 197.0 228.5 L195.0 250.5 Q193.0 262.5 194.0 278.5 L186.0 281.5 Q176.0 279.5 172.0 269.5 L168.0 247.5 M205.0 317.5 L196.0 313.5 189.0 303.5 Q185.0 288.5 204.0 286.5 213.0 298.5 212.0 308.5 L205.0 317.5" fill="#ffffff" fill-rule="evenodd" stroke="none"/>
    <path d="M149.0 216.5 L158.0 195.5 163.0 186.5 171.0 176.5 286.0 304.5 288.0 353.5 278.0 356.5 Q233.0 365.5 195.0 340.5 L188.0 335.5 Q157.0 310.5 148.0 270.5 L148.0 262.5 Q143.0 238.5 149.0 216.5 M205.0 317.5 L212.0 308.5 Q213.0 298.5 204.0 286.5 185.0 288.5 189.0 303.5 L196.0 313.5 205.0 317.5 M168.0 247.5 L172.0 269.5 Q176.0 279.5 186.0 281.5 L194.0 278.5 Q193.0 262.5 195.0 250.5 L197.0 228.5 Q194.0 217.5 181.0 219.5 167.0 231.5 168.0 247.5" fill="#9f608c" fill-rule="evenodd" stroke="none"/>
    <path d="M203.0 150.5 L324.0 274.5 362.0 274.5 351.0 301.5 317.0 301.5 317.0 340.5 312.0 344.5 288.0 353.5 286.0 304.5 171.0 176.5 184.0 163.5 203.0 150.5 M184.0 163.5 L317.0 301.5 184.0 163.5" fill="#af7a9f" fill-rule="evenodd" stroke="none"/>
    <path d="M362.0 274.5 L363.0 264.5 Q366.0 245.5 362.0 225.5 352.0 179.5 314.0 154.5 280.0 132.5 241.0 138.5 L232.0 139.5 Q219.0 141.5 208.0 148.5 L203.0 150.5 184.0 163.5 171.0 176.5 163.0 186.5 158.0 195.5 149.0 216.5 Q132.0 204.5 127.0 181.5 L126.0 172.5 126.0 158.5 Q128.0 147.5 133.0 138.5 102.0 127.5 72.0 153.5 M351.0 301.5 L344.0 312.5 333.0 327.5 317.0 340.5 312.0 344.5 288.0 353.5 278.0 356.5 Q233.0 365.5 195.0 340.5 L188.0 335.5 Q157.0 310.5 148.0 270.5 L148.0 262.5 Q143.0 238.5 149.0 216.5 M362.0 274.5 L351.0 301.5 317.0 301.5 317.0 340.5 M173.0 107.5 L171.0 87.5 Q171.0 70.5 191.0 54.5 M241.0 138.5 L238.0 134.5 221.0 114.5 Q201.0 102.5 179.0 106.5 L174.0 107.5 173.0 107.5 Q156.0 111.5 143.0 123.5 L135.0 131.5 135.0 132.5 133.0 138.5 M317.0 301.5 L184.0 163.5" fill="none" stroke="#663300" stroke-linecap="round" stroke-linejoin="round" stroke-width="20.0"/>
  </g>
</svg>
